<?xml version="1.0" standalone="no"?>
<!DOCTYPE svg PUBLIC "-//W3C//DTD SVG 20010904//EN"
 "http://www.w3.org/TR/2001/REC-SVG-20010904/DTD/svg10.dtd">
<svg version="1.0" xmlns="http://www.w3.org/2000/svg"
 width="128.000000pt" height="128.000000pt" viewBox="0 0 128.000000 128.000000"
 preserveAspectRatio="xMidYMid meet">

<g transform="translate(0.000000,128.000000) scale(0.100000,-0.100000)"
fill="#000000" stroke="none">
<path d="M533 1270 c-232 -42 -427 -211 -500 -434 -22 -68 -26 -99 -26 -196
-1 -100 3 -126 27 -195 36 -104 83 -180 157 -254 74 -74 150 -121 254 -157
110 -38 263 -40 375 -6 203 63 355 212 426 417 24 69 28 96 28 195 0 99 -4
126 -28 195 -90 260 -307 426 -575 440 -47 2 -109 0 -138 -5z m412 -635 l0
-210 -310 0 -310 0 -3 200 c-1 110 0 205 3 212 3 11 68 13 312 11 l308 -3 0
-210z"/>
<path d="M376 791 c-7 -11 -3 -15 142 -105 l123 -77 129 82 c72 45 130 88 130
96 0 17 7 20 -142 -74 l-117 -74 -118 74 c-65 40 -123 76 -130 80 -6 4 -14 3
-17 -2z"/>
</g>
</svg>
